<svg width="28" height="28" viewBox="0 0 28 28" fill="none" xmlns="http://www.w3.org/2000/svg">
<path d="M25.6667 6.04331L12.355 19.3666L7.40833 14.42L9.05333 12.775L12.355 16.0766L24.0217 4.40998L25.6667 6.04331ZM14 23.3333C8.85499 23.3333 4.66666 19.145 4.66666 14C4.66666 8.85498 8.85499 4.66665 14 4.66665C15.8317 4.66665 17.5467 5.20331 18.9933 6.12498L20.685 4.43331C18.7833 3.11498 16.485 2.33331 14 2.33331C7.55999 2.33331 2.33333 7.55998 2.33333 14C2.33333 20.44 7.55999 25.6666 14 25.6666C16.0183 25.6666 17.92 25.1533 19.5767 24.2433L17.8267 22.4933C16.66 23.03 15.365 23.3333 14 23.3333ZM22.1667 17.5H18.6667V19.8333H22.1667V23.3333H24.5V19.8333H28V17.5H24.5V14H22.1667V17.5Z" fill="black"/>
</svg>
