<svg width="101" height="101" viewBox="0 0 101 101" fill="none" xmlns="http://www.w3.org/2000/svg">
<path d="M82.0625 89.9531H50.5L57.4619 63.4982C57.728 62.4869 58.3215 61.5921 59.1498 60.9536C59.978 60.3151 60.9943 59.9688 62.04 59.9688H83.8117C84.5361 59.9687 85.2508 60.135 85.9009 60.4546C86.551 60.7743 87.119 61.2389 87.5613 61.8126C88.0036 62.3863 88.3083 63.0539 88.452 63.7639C88.5957 64.4739 88.5746 65.2075 88.3902 65.908L82.0625 89.9531Z" fill="#348ED8"/>
<path d="M77.3281 44.1875L82.0625 41.0312L69.4722 28.7485L75.75 20.5156L88.8443 30.3363C90.6586 31.697 92.1311 33.4614 93.1453 35.4898C94.1595 37.5182 94.6875 39.7549 94.6875 42.0227C94.6877 44.5981 94.007 47.1278 92.7144 49.3554C91.4218 51.5829 89.5632 53.4291 87.3271 54.7069L83.6406 56.8125L77.3281 44.1875Z" fill="#FCB079"/>
<path d="M28.4062 39.4531L41.0312 34.7188L37.875 26.8281L58.3906 23.6719L59.9687 14.2031H36.0294C33.7668 14.203 31.554 14.8668 29.6651 16.1123C27.7762 17.3579 26.2944 19.1303 25.4033 21.21C24.2879 23.8124 24.1664 26.7337 25.0618 29.4198L28.4062 39.4531Z" fill="#FCB079"/>
<path d="M57.0145 14.9725L47.7462 22.7082L51.0734 24.0934L47.5091 32.2727C47.3225 32.7026 47.2238 33.1654 47.2187 33.634C47.2136 34.1026 47.3023 34.5675 47.4795 35.0014C47.6566 35.4352 47.9188 35.8293 48.2504 36.1604C48.5821 36.4914 48.9765 36.7529 49.4107 36.9293L52.7382 38.3147L47.7474 49.7648L61.0571 55.306L75.316 22.5911L57.0145 14.9725Z" fill="#FDC8A2"/>
<path d="M76.7403 19.3202L70.3252 34.0402L69.1357 27.7494L63.3657 38.5812C62.7921 39.6578 61.8252 40.4715 60.6664 40.8526C59.5076 41.2337 58.2465 41.1528 57.1459 40.6269L49.4111 36.9281C48.9769 36.752 48.5823 36.4907 48.2506 36.1598C47.9188 35.8288 47.6567 35.4348 47.4795 35.001C47.3023 34.5672 47.2136 34.1024 47.2188 33.6338C47.2239 33.1653 47.3228 32.7025 47.5094 32.2727L48.6358 29.6865L50.064 26.4139L51.074 24.094L59.3927 27.5561L67.1374 22.1273C67.3828 21.9553 67.5808 21.724 67.7129 21.455C67.845 21.186 67.9069 20.8879 67.8929 20.5886C67.879 20.2892 67.7895 19.9982 67.6329 19.7426C67.4764 19.4871 67.2577 19.2753 66.9973 19.1269L57.0137 14.9725C56.0429 14.5747 55.212 13.898 54.6259 13.0279C54.0398 12.1577 53.7251 11.1333 53.7213 10.0842C53.7221 9.36243 53.8719 8.64857 54.1612 7.9873C54.7449 6.67782 55.8179 5.64872 57.1505 5.12008C58.4832 4.59144 59.9698 4.60523 61.2924 5.15851L72.937 10.0053C73.8055 10.3581 74.5948 10.881 75.2583 11.5433C75.9218 12.2056 76.4461 12.9938 76.8005 13.8617C77.1549 14.7296 77.3321 15.6596 77.3217 16.5971C77.3114 17.5345 77.1137 18.4603 76.7403 19.3202Z" fill="#91563A"/>
<path d="M56.0749 22.2622L57.5023 18.9899L60.3966 20.2524L58.9692 23.5247L56.0749 22.2622Z" fill="#91563A"/>
<path d="M28.4062 39.4531L41.0312 34.7188L45.7656 44.1875L66.2812 50.5L77.3281 44.1875L83.6406 56.8125L71.0156 66.2812L63.125 89.9531H23.6719L33.1406 53.6562L28.4062 39.4531Z" fill="#D65246"/>
<path d="M56.0432 30.7478C55.2544 31.3068 54.305 31.5936 53.3386 31.5645C52.5247 31.5576 51.7185 31.4059 50.9577 31.1167C50.0945 30.8028 49.3045 30.3161 48.6358 29.6865L50.064 26.4139C50.2159 26.8222 50.646 27.5856 52.0564 28.1597C53.1374 28.5976 53.9403 28.3826 54.1317 28.2346L56.0432 30.7478Z" fill="#FDC8A2"/>
<path d="M4.73438 89.9531H96.2656V96.2656H4.73438V89.9531Z" fill="#91563A"/>
<path d="M11.0469 83.6406H58.3906V89.9531H11.0469V83.6406Z" fill="#CECECC"/>
<path d="M40.2027 89.9531H13.4717C12.7763 89.9531 12.1003 89.7234 11.5489 89.2997C10.9974 88.8761 10.6013 88.2821 10.4221 87.6102L4.82867 66.6345C4.7661 66.4 4.7344 66.1583 4.73438 65.9155C4.73437 65.5491 4.80655 65.1862 4.94679 64.8476C5.08703 64.5091 5.29258 64.2015 5.5517 63.9423C5.81082 63.6832 6.11845 63.4777 6.45701 63.3374C6.79557 63.1972 7.15844 63.125 7.52489 63.125H35.3752C36.0866 63.1251 36.777 63.3655 37.3345 63.8072C37.8921 64.2488 38.2841 64.8659 38.4471 65.5583L43.2744 86.0739C43.3834 86.5371 43.3862 87.019 43.2827 87.4835C43.1791 87.948 42.9719 88.3831 42.6765 88.7562C42.3811 89.1293 42.0051 89.4307 41.5767 89.638C41.1483 89.8453 40.6786 89.953 40.2027 89.9531Z" fill="#DFDFDD"/>
<path d="M26.0729 79.569C27.2255 78.3631 27.0921 76.365 25.7751 75.1062C24.458 73.8474 22.4559 73.8046 21.3033 75.0105C20.1508 76.2165 20.2841 78.2145 21.6012 79.4733C22.9183 80.7321 24.9204 80.775 26.0729 79.569Z" fill="#F1F1F1"/>
<path d="M75.75 69.4375H89.9531V89.9531H75.75V69.4375Z" fill="#D65246"/>
<path d="M93.9714 72.5938H89.9531V75.75H93.9714C94.1613 75.7502 94.3433 75.8257 94.4775 75.96C94.6118 76.0942 94.6873 76.2762 94.6875 76.4661V82.9246C94.6873 83.1144 94.6118 83.2964 94.4775 83.4307C94.3433 83.5649 94.1613 83.6404 93.9714 83.6406H89.9531V86.7969H93.9714C94.9981 86.7957 95.9824 86.3874 96.7083 85.6614C97.4343 84.9355 97.8426 83.9512 97.8438 82.9246V76.4661C97.8426 75.4394 97.4343 74.4551 96.7083 73.7292C95.9824 73.0032 94.9981 72.5949 93.9714 72.5938Z" fill="#C7483C"/>
</svg>
